<mxfile host="app.diagrams.net" modified="2021-09-11T09:34:44.823Z" agent="5.0 (Macintosh; Intel Mac OS X 10_15_7) AppleWebKit/605.1.15 (KHTML, like Gecko) Version/14.1.1 Safari/605.1.15" etag="xWVhF79oOe9iLb09OUX7" version="15.1.4" type="github">
  <diagram id="1tEmmbN0UWgl5kfyUkwj" name="第 1 页">
    <mxGraphModel dx="946" dy="501" grid="1" gridSize="10" guides="1" tooltips="1" connect="1" arrows="1" fold="1" page="1" pageScale="1" pageWidth="827" pageHeight="1169" math="0" shadow="0">
      <root>
        <mxCell id="0" />
        <mxCell id="1" parent="0" />
        <mxCell id="T3376S7k-UnNypuW2nBb-1" value="事务A" style="rounded=0;whiteSpace=wrap;html=1;fontSize=16;" vertex="1" parent="1">
          <mxGeometry x="120" y="80" width="240" height="60" as="geometry" />
        </mxCell>
        <mxCell id="T3376S7k-UnNypuW2nBb-2" value="事务B" style="rounded=0;whiteSpace=wrap;html=1;fontSize=16;" vertex="1" parent="1">
          <mxGeometry x="360" y="80" width="240" height="60" as="geometry" />
        </mxCell>
        <mxCell id="T3376S7k-UnNypuW2nBb-3" value="begin;" style="rounded=0;whiteSpace=wrap;html=1;fontSize=16;" vertex="1" parent="1">
          <mxGeometry x="120" y="140" width="240" height="60" as="geometry" />
        </mxCell>
        <mxCell id="T3376S7k-UnNypuW2nBb-4" value="" style="rounded=0;whiteSpace=wrap;html=1;fontSize=16;" vertex="1" parent="1">
          <mxGeometry x="360" y="140" width="240" height="60" as="geometry" />
        </mxCell>
        <mxCell id="T3376S7k-UnNypuW2nBb-5" value="update t_stu set score = 100 where id = 1;" style="rounded=0;whiteSpace=wrap;html=1;fontSize=16;" vertex="1" parent="1">
          <mxGeometry x="120" y="200" width="240" height="60" as="geometry" />
        </mxCell>
        <mxCell id="T3376S7k-UnNypuW2nBb-6" value="begin;" style="rounded=0;whiteSpace=wrap;html=1;fontSize=16;" vertex="1" parent="1">
          <mxGeometry x="360" y="200" width="240" height="60" as="geometry" />
        </mxCell>
        <mxCell id="T3376S7k-UnNypuW2nBb-7" value="update t_stu set score = 77 where id = 2;" style="rounded=0;whiteSpace=wrap;html=1;fontSize=16;" vertex="1" parent="1">
          <mxGeometry x="360" y="260" width="240" height="60" as="geometry" />
        </mxCell>
        <mxCell id="T3376S7k-UnNypuW2nBb-8" value="" style="rounded=0;whiteSpace=wrap;html=1;fontSize=16;" vertex="1" parent="1">
          <mxGeometry x="120" y="260" width="240" height="60" as="geometry" />
        </mxCell>
        <mxCell id="T3376S7k-UnNypuW2nBb-9" value="commit;" style="rounded=0;whiteSpace=wrap;html=1;fontSize=16;" vertex="1" parent="1">
          <mxGeometry x="120" y="320" width="240" height="60" as="geometry" />
        </mxCell>
        <mxCell id="T3376S7k-UnNypuW2nBb-12" value="" style="rounded=0;whiteSpace=wrap;html=1;fontSize=16;" vertex="1" parent="1">
          <mxGeometry x="360" y="320" width="240" height="60" as="geometry" />
        </mxCell>
        <mxCell id="T3376S7k-UnNypuW2nBb-13" value="" style="rounded=0;whiteSpace=wrap;html=1;fontSize=16;" vertex="1" parent="1">
          <mxGeometry x="120" y="380" width="240" height="60" as="geometry" />
        </mxCell>
        <mxCell id="T3376S7k-UnNypuW2nBb-14" value="&lt;span&gt;commit;&lt;/span&gt;" style="rounded=0;whiteSpace=wrap;html=1;fontSize=16;" vertex="1" parent="1">
          <mxGeometry x="360" y="380" width="240" height="60" as="geometry" />
        </mxCell>
      </root>
    </mxGraphModel>
  </diagram>
</mxfile>
